<svg width="35" height="35" viewBox="0 0 25 26" fill="none" xmlns="http://www.w3.org/2000/svg">
<path d="M12.9469 2.15327C12.7349 1.97295 12.4658 1.87394 12.1875 1.87394C11.9092 1.87394 11.6401 1.97295 11.4281 2.15327L2.2875 9.92327C2.15808 10.0334 2.05415 10.1703 1.98292 10.3246C1.9117 10.4789 1.87487 10.6468 1.875 10.8167V22.9658C1.875 23.0901 1.92439 23.2093 2.01229 23.2972C2.1002 23.3851 2.21943 23.4345 2.34375 23.4345H7.03125C7.15557 23.4345 7.2748 23.3851 7.36271 23.2972C7.45061 23.2093 7.5 23.0901 7.5 22.9658V16.4033C7.5 15.7817 7.74693 15.1855 8.18647 14.746C8.62601 14.3064 9.22215 14.0595 9.84375 14.0595H14.0625C14.3703 14.0595 14.6751 14.1201 14.9594 14.2379C15.2438 14.3557 15.5021 14.5283 15.7198 14.746C15.9374 14.9636 16.1101 15.222 16.2278 15.5064C16.3456 15.7907 16.4062 16.0955 16.4062 16.4033V22.9658C16.4062 23.0901 16.4556 23.2093 16.5435 23.2972C16.6315 23.3851 16.7507 23.4345 16.875 23.4345H22.0312C22.1556 23.4345 22.2748 23.3851 22.3627 23.2972C22.4506 23.2093 22.5 23.0901 22.5 22.9658V10.8158C22.5 10.646 22.4631 10.4783 22.3919 10.3242C22.3207 10.1701 22.2168 10.0333 22.0875 9.92327L12.9469 2.15327ZM10.2141 0.725455C10.765 0.257139 11.4644 0 12.1875 0C12.9106 0 13.61 0.257139 14.1609 0.725455L23.3016 8.49452C23.638 8.78053 23.9083 9.13626 24.0936 9.53707C24.279 9.93787 24.375 10.3742 24.375 10.8158V22.9658C24.375 23.5874 24.1281 24.1835 23.6885 24.623C23.249 25.0626 22.6529 25.3095 22.0312 25.3095H16.875C16.2534 25.3095 15.6573 25.0626 15.2177 24.623C14.7782 24.1835 14.5312 23.5874 14.5312 22.9658V16.4033C14.5312 16.2789 14.4819 16.1597 14.394 16.0718C14.306 15.9839 14.1868 15.9345 14.0625 15.9345H9.84375C9.71943 15.9345 9.6002 15.9839 9.51229 16.0718C9.42439 16.1597 9.375 16.2789 9.375 16.4033V22.9658C9.375 23.5874 9.12807 24.1835 8.68853 24.623C8.24899 25.0626 7.65285 25.3095 7.03125 25.3095H2.34375C1.72215 25.3095 1.12601 25.0626 0.686468 24.623C0.24693 24.1835 0 23.5874 0 22.9658V10.8158C2.46665e-05 10.3742 0.0960361 9.93787 0.281385 9.53707C0.466734 9.13626 0.73699 8.78053 1.07344 8.49452L10.2141 0.725455Z" fill="#05CECE"/>
</svg>
